<svg width="28" height="28" viewBox="0 0 28 28" fill="none" xmlns="http://www.w3.org/2000/svg">
<path d="M14 0.5C21.4558 0.5 27.5 6.54416 27.5 14C27.5 21.4558 21.4558 27.5 14 27.5C6.54416 27.5 0.5 21.4558 0.5 14C0.5 6.54416 6.54416 0.5 14 0.5Z" fill="#F7F7F7"/>
<path d="M14 0.5C21.4558 0.5 27.5 6.54416 27.5 14C27.5 21.4558 21.4558 27.5 14 27.5C6.54416 27.5 0.5 21.4558 0.5 14C0.5 6.54416 6.54416 0.5 14 0.5Z" stroke="#D6D6D6"/>
<g clip-path="url(#clip0_2774_63478)">
<path fill-rule="evenodd" clip-rule="evenodd" d="M9.63674 10.5C9.63674 8.01472 11.5907 6 14.001 6C16.4113 6 18.3652 8.01472 18.3652 10.5C18.3652 12.9853 16.4113 15 14.001 15C11.5907 15 9.63674 12.9853 9.63674 10.5Z" fill="#D6D6D6"/>
<path fill-rule="evenodd" clip-rule="evenodd" d="M6.00109 24.6053C6.07609 20.1156 9.62897 16.5 14.001 16.5C18.3731 16.5 21.926 20.1157 22.0009 24.6056C22.0058 24.9034 21.8395 25.176 21.577 25.3002C19.2698 26.3918 16.7031 27.5 14.001 27.5C11.2986 27.5 8.73231 26.3917 6.42497 25.2999C6.16247 25.1757 5.99611 24.9031 6.00109 24.6053Z" fill="#D6D6D6"/>
</g>
<defs>
<clipPath id="clip0_2774_63478">
<rect width="23.3333" height="23.3333" fill="white" transform="translate(2.33301 4.6665)"/>
</clipPath>
</defs>
</svg>
